<svg width="32" height="32" viewBox="0 0 32 32" fill="none" xmlns="http://www.w3.org/2000/svg">
<g clip-path="url(#clip0_28050_258)">
<path d="M31.6067 23.8471C30.7917 22.2815 28.9467 21.6212 27.2198 22.2763C26.0155 22.7334 24.5428 23.2922 22.94 23.7342C23.0879 23.0225 23.0142 22.2688 22.7185 21.5522C22.2874 20.5074 21.4016 19.7301 20.2881 19.4196C19.7187 19.2608 19.1008 19.2251 18.4516 19.3134C14.169 19.8958 11.6189 18.4477 9.3689 17.1699C7.85671 16.3112 6.42834 15.5 4.75622 15.5C2.71934 15.5 0.88284 16.1821 0.88284 16.1821C0.223965 16.3882 -0.142972 17.0896 0.0632776 17.7484C0.269465 18.4072 0.97084 18.774 1.62959 18.5679C1.62959 18.5679 3.09759 18 4.75622 18C5.76797 18 6.81228 18.593 8.1344 19.3439C10.1142 20.4681 12.7135 21.9446 16.5774 21.9444C17.2722 21.9444 18.0083 21.8966 18.7886 21.7905C19.094 21.749 19.3804 21.7618 19.6165 21.8276C19.88 21.9011 20.2311 22.0784 20.4074 22.5057C20.5442 22.8371 20.551 23.1471 20.4277 23.4272C20.2765 23.7709 19.9319 24.0557 19.4575 24.2292C18.7742 24.4791 17.7994 24.6124 16.6937 24.625C15.5046 24.6325 14.3439 24.4966 13.324 24.2286C12.6562 24.0529 11.9727 24.4521 11.7973 25.1198C11.6218 25.7875 12.0208 26.471 12.6885 26.6464C13.8833 26.9604 15.3289 27.1256 16.6937 27.1256V27.1241C21.4458 27.1037 25.5142 25.5977 28.1069 24.6136C28.5414 24.4489 29.1184 24.4743 29.4005 25.0233C29.635 25.4737 29.4623 26.0344 29.0156 26.273C25.8784 27.9491 22.238 29.5 16.8883 29.5C12.1258 29.5 7.73909 27.6623 4.89772 26.1205C2.88603 25.0289 1.37322 25.2573 1.00534 25.3377C1.0044 25.3379 0.00621512 25.4856 0.00621512 26.5625C0.00621512 27.2529 0.56584 27.8125 1.25622 27.8125C1.36765 27.8125 1.57815 27.7703 1.57815 27.7703C1.57815 27.7703 2.40928 27.6146 3.7054 28.3179C6.80128 29.9976 11.6014 32 16.8883 32C23.6013 32 28.0538 29.6212 30.1936 28.4781C31.8433 27.5968 32.4705 25.5065 31.6067 23.8471Z" fill="#1A2D21"/>
<path d="M10.8023 12.2626C11.0349 12.6599 11.4529 12.8814 11.8823 12.8814C12.0968 12.8814 12.3141 12.8261 12.5125 12.7101L13.6318 12.0551C14.4089 12.8836 15.4279 13.4824 16.575 13.7378V15C16.575 15.6904 17.1346 16.25 17.825 16.25C18.5153 16.25 19.075 15.6904 19.075 15V13.7378C20.198 13.4878 21.1984 12.9086 21.9691 12.1068L22.9998 12.7101C23.1983 12.8261 23.4155 12.8814 23.63 12.8814C24.0595 12.8814 24.4775 12.6599 24.71 12.2626C25.0587 11.6667 24.8584 10.9011 24.2625 10.5524L23.2707 9.97194C23.4678 9.392 23.5749 8.77075 23.5749 8.125C23.5749 7.48006 23.4682 6.85956 23.2714 6.28025L24.2646 5.69644C24.8597 5.34656 25.0586 4.5805 24.7087 3.98537C24.3588 3.39019 23.5928 3.19131 22.9977 3.54119L21.9707 4.14488C21.1998 3.34225 20.1987 2.76244 19.0748 2.51225V1.25C19.0748 0.559625 18.5152 0 17.8248 0C17.1345 0 16.5748 0.559625 16.5748 1.25V2.51225C15.4269 2.76775 14.4073 3.36731 13.63 4.19688L12.5145 3.54119C11.9193 3.19144 11.1533 3.39025 10.8035 3.98537C10.4536 4.58044 10.6525 5.34656 11.2476 5.69644L12.3562 6.34812C12.1738 6.908 12.0748 7.50513 12.0748 8.12506C12.0748 8.74588 12.1741 9.34387 12.357 9.90444L11.2497 10.5524C10.654 10.9011 10.4537 11.6667 10.8023 12.2626ZM17.825 4.875C19.617 4.875 21.075 6.33294 21.075 8.125C21.075 9.91706 19.617 11.375 17.825 11.375C16.0329 11.375 14.575 9.91706 14.575 8.125C14.575 6.33294 16.0329 4.875 17.825 4.875Z" fill="#1A2D21"/>
</g>
<defs>
<clipPath id="clip0_28050_258">
<rect width="32" height="32" fill="white"/>
</clipPath>
</defs>
</svg>
