<svg width="32" height="32" viewBox="0 0 32 32" fill="none" xmlns="http://www.w3.org/2000/svg">
<g clip-path="url(#clip0_28084_477)">
<path d="M30.3101 25.1187C30.3357 23.3332 29.9731 21.8599 29.2268 20.7315C28.8461 20.1557 28.0704 19.9976 27.4947 20.3784C26.9188 20.7592 26.7608 21.5347 27.1416 22.1105C27.5305 22.6985 27.7525 23.522 27.8007 24.5277C26.0916 24.7328 24.7329 26.0915 24.5277 27.8007C23.5222 27.7524 22.6985 27.5304 22.1106 27.1415C21.5346 26.7607 20.7592 26.9189 20.3784 27.4947C19.9976 28.0705 20.1557 28.846 20.7315 29.2268C21.8227 29.9484 23.2357 30.312 24.9425 30.312C25.0008 30.312 25.0599 30.3111 25.1189 30.3102C25.7903 31.3272 26.9427 31.9999 28.2499 31.9999C30.3176 31.9999 31.9999 30.3177 31.9999 28.2499C31.9999 26.9427 31.3271 25.7902 30.3101 25.1187ZM28.2499 29.4999C27.5606 29.4999 26.9999 28.9392 26.9999 28.2499C26.9999 27.5607 27.5606 26.9999 28.2499 26.9999C28.9391 26.9999 29.4999 27.5607 29.4999 28.2499C29.4999 28.9392 28.9391 29.4999 28.2499 29.4999Z" fill="#1A2D21"/>
<path d="M27.25 16C27.25 14.9984 26.8599 14.0566 26.1517 13.3484L24.1693 11.3659C23.6811 10.8777 22.8896 10.8777 22.4014 11.3659C21.9133 11.8541 21.9133 12.6456 22.4014 13.1337L24.3839 15.1161C24.62 15.3523 24.75 15.6661 24.75 16C24.75 16.3339 24.62 16.6477 24.3839 16.8839L16.8839 24.3839C16.6477 24.62 16.3339 24.75 16 24.75C15.6661 24.75 15.3523 24.62 15.1161 24.3839L7.61613 16.8839C7.38 16.6477 7.25 16.3339 7.25 16C7.25 15.6661 7.38 15.3523 7.61613 15.1161L15.1161 7.61613C15.3523 7.38 15.6661 7.25 16 7.25C16.3339 7.25 16.6477 7.38 16.8839 7.61613L18.8663 9.59856C19.3545 10.0867 20.146 10.0867 20.6341 9.59856C21.1222 9.11037 21.1222 8.31894 20.6341 7.83081L18.6517 5.84844C17.9434 5.14006 17.0017 4.75 16 4.75C14.9983 4.75 14.0566 5.14006 13.3483 5.84837L5.84831 13.3484C5.14006 14.0566 4.75 14.9984 4.75 16C4.75 17.0016 5.14006 17.9434 5.84831 18.6516L13.3483 26.1516C14.0566 26.8599 14.9983 27.25 16 27.25C17.0017 27.25 17.9434 26.8599 18.6517 26.1516L26.1517 18.6516C26.8599 17.9434 27.25 17.0016 27.25 16Z" fill="#1A2D21"/>
<path d="M4.85825 9.88931C4.46938 9.30138 4.24738 8.47787 4.19912 7.47213C5.90831 7.26706 7.267 5.90837 7.47213 4.19919C8.47775 4.24744 9.30131 4.46944 9.88931 4.85831C10.1016 4.99869 10.3409 5.06581 10.5777 5.06581C10.9832 5.06575 11.3811 4.86875 11.6214 4.50519C12.0023 3.92937 11.8441 3.15387 11.2684 2.77306C10.1401 2.02688 8.66681 1.66413 6.88112 1.68981C6.20969 0.67275 5.05719 0 3.75 0C1.68225 0 0 1.68225 0 3.75C0 5.05725 0.672813 6.20975 1.68981 6.88119C1.66413 8.66669 2.02681 10.1401 2.77306 11.2684C3.15325 11.8434 3.92863 12.0029 4.50519 11.6215C5.08106 11.2407 5.23906 10.4651 4.85825 9.88931ZM3.75 2.5C4.43925 2.5 5 3.06075 5 3.75C5 4.43925 4.43925 5 3.75 5C3.06075 5 2.5 4.43925 2.5 3.75C2.5 3.06075 3.06075 2.5 3.75 2.5Z" fill="#1A2D21"/>
<path d="M31.9999 3.75C31.9999 1.68225 30.3176 0 28.2499 0C26.9427 0 25.7902 0.67275 25.1188 1.68981C23.3333 1.66419 21.8599 2.02688 20.7315 2.77306C20.1557 3.15387 19.9976 3.92937 20.3785 4.50519C20.6189 4.86875 21.0167 5.06581 21.4222 5.06581C21.6589 5.06581 21.8983 4.99863 22.1106 4.85831C22.6986 4.46944 23.5221 4.24738 24.5278 4.19919C24.7328 5.90844 26.0915 7.26706 27.8007 7.47219C27.7525 8.47787 27.5305 9.30137 27.1416 9.88937C26.7608 10.4652 26.9189 11.2408 27.4947 11.6215C28.0717 12.0031 28.8468 11.8431 29.2268 11.2684C29.9731 10.1401 30.3358 8.66669 30.3101 6.88119C31.3271 6.20975 31.9999 5.05725 31.9999 3.75ZM26.9999 3.75C26.9999 3.06075 27.5606 2.5 28.2499 2.5C28.9391 2.5 29.4999 3.06075 29.4999 3.75C29.4999 4.43925 28.9391 5 28.2499 5C27.5606 5 26.9999 4.43925 26.9999 3.75Z" fill="#1A2D21"/>
<path d="M9.88931 27.1416C9.30131 27.5305 8.47781 27.7526 7.47213 27.8007C7.26706 26.0915 5.90837 24.7329 4.19912 24.5277C4.24738 23.5221 4.46938 22.6986 4.85825 22.1106C5.23906 21.5347 5.081 20.7592 4.50519 20.3784C3.92925 19.9976 3.15387 20.1557 2.77306 20.7315C2.02681 21.8598 1.66413 23.3332 1.68981 25.1187C0.672813 25.7902 0 26.9427 0 28.2499C0 30.3177 1.68225 31.9999 3.75 31.9999C5.05713 31.9999 6.20956 31.3272 6.881 30.3104C6.94 30.3112 6.99906 30.3122 7.05737 30.3122C8.764 30.3122 10.1772 29.9485 11.2684 29.2269C11.8442 28.8461 12.0023 28.0706 11.6214 27.4948C11.2407 26.9189 10.4651 26.7609 9.88931 27.1416ZM3.75 29.4999C3.06075 29.4999 2.5 28.9392 2.5 28.2499C2.5 27.5607 3.06075 26.9999 3.75 26.9999C4.43925 26.9999 5 27.5607 5 28.2499C5 28.9392 4.43925 29.4999 3.75 29.4999Z" fill="#1A2D21"/>
</g>
<defs>
<clipPath id="clip0_28084_477">
<rect width="32" height="32" fill="white"/>
</clipPath>
</defs>
</svg>
